<svg xmlns="http://www.w3.org/2000/svg" xmlns:xlink="http://www.w3.org/1999/xlink" viewBox="0 0 452.37 355.48"><defs><style>.cls-1{fill:url(#Sfumatura_senza_nome_226);}.cls-2,.cls-3,.cls-4,.cls-5{opacity:0.73;}.cls-2{fill:url(#Sfumatura_senza_nome_273);}.cls-3{fill:url(#Sfumatura_senza_nome_273-2);}.cls-4{fill:url(#Sfumatura_senza_nome_273-3);}.cls-5{fill:url(#Sfumatura_senza_nome_273-4);}.cls-6{fill:url(#Sfumatura_senza_nome_149);}.cls-7{fill:url(#Sfumatura_senza_nome_149-2);}.cls-8{fill:url(#Sfumatura_senza_nome_9);}.cls-9{fill:url(#Sfumatura_senza_nome_9-2);}.cls-10{fill:url(#Sfumatura_senza_nome_9-3);}.cls-11{fill:url(#Sfumatura_senza_nome_9-4);}.cls-12{fill:url(#Sfumatura_senza_nome_163);}.cls-13{fill:url(#Sfumatura_senza_nome_163-2);}.cls-14{fill:#1a1b1c;}</style><linearGradient id="Sfumatura_senza_nome_226" x1="451.92" y1="200.24" x2="514.62" y2="555.82" gradientUnits="userSpaceOnUse"><stop offset="0" stop-color="aqua"/><stop offset="1" stop-color="#0af"/></linearGradient><linearGradient id="Sfumatura_senza_nome_273" x1="440.03" y1="392" x2="440.03" y2="635" gradientUnits="userSpaceOnUse"><stop offset="0" stop-color="#00ff62"/><stop offset="0.09" stop-color="#00f659"/><stop offset="0.24" stop-color="#00df42"/><stop offset="0.43" stop-color="#00ba1c"/></linearGradient><linearGradient id="Sfumatura_senza_nome_273-2" x1="655.92" x2="655.92" xlink:href="#Sfumatura_senza_nome_273"/><linearGradient id="Sfumatura_senza_nome_273-3" x1="538.87" x2="538.87" y2="634.88" xlink:href="#Sfumatura_senza_nome_273"/><linearGradient id="Sfumatura_senza_nome_273-4" x1="388.01" x2="388.01" xlink:href="#Sfumatura_senza_nome_273"/><linearGradient id="Sfumatura_senza_nome_149" x1="572.69" y1="222.63" x2="572.69" y2="497.37" gradientTransform="translate(423.26 -301.85) rotate(45)" gradientUnits="userSpaceOnUse"><stop offset="0" stop-color="#fadfdf"/><stop offset="1" stop-color="#ffdbde"/></linearGradient><linearGradient id="Sfumatura_senza_nome_149-2" x1="396" y1="302.12" x2="396" y2="417.88" gradientTransform="matrix(1, 0, 0, 1, 0, 0)" xlink:href="#Sfumatura_senza_nome_149"/><linearGradient id="Sfumatura_senza_nome_9" x1="570.07" y1="395" x2="570.07" y2="513" gradientUnits="userSpaceOnUse"><stop offset="0" stop-color="#ff0062"/><stop offset="1" stop-color="#d90053"/></linearGradient><linearGradient id="Sfumatura_senza_nome_9-2" x1="387.86" y1="280.14" x2="387.86" y2="381.06" xlink:href="#Sfumatura_senza_nome_9"/><linearGradient id="Sfumatura_senza_nome_9-3" x1="524.69" y1="243.09" x2="524.69" y2="372.97" xlink:href="#Sfumatura_senza_nome_9"/><linearGradient id="Sfumatura_senza_nome_9-4" x1="610.84" y1="186.24" x2="610.84" y2="296.52" xlink:href="#Sfumatura_senza_nome_9"/><linearGradient id="Sfumatura_senza_nome_163" x1="396" y1="216" x2="396" y2="504" gradientUnits="userSpaceOnUse"><stop offset="0" stop-color="#efdfe0" stop-opacity="0"/><stop offset="1" stop-color="#00d7ff" stop-opacity="0.4"/></linearGradient><linearGradient id="Sfumatura_senza_nome_163-2" x1="572.69" x2="572.69" y2="504" xlink:href="#Sfumatura_senza_nome_163"/></defs><title>koi</title><g id="Background"><path class="cls-1" d="M306,270s-45,27-45,99,135,72,216,135,198,36,225-18-18-279-99-297S396,216,306,270Z" transform="translate(-261 -184.97)"/></g><g id="Algae"><path class="cls-2" d="M422.39,472.21a317.07,317.07,0,0,1,33.9,17.62c2.48-24.51,1.39-55.27-1.29-88.83A277.39,277.39,0,0,0,422.39,472.21Z" transform="translate(-261 -184.97)"/><path class="cls-3" d="M627.57,535.59c22.63-5.38,42.44-15,56.71-27.41C679,489.51,677.51,468.81,680,446,652.29,473.73,634.08,503.44,627.57,535.59Z" transform="translate(-261 -184.97)"/><path class="cls-4" d="M545,527c-.36-28.51-13-64.92-36-108-18.86,21.32-35.26,45.75-49.66,72.71A213.74,213.74,0,0,1,477,504c43.26,33.65,96.79,41.62,141.4,33.52C601.78,517.05,597.49,478.73,608,419,575.8,449.61,554.93,485.67,545,527Z" transform="translate(-261 -184.97)"/><path class="cls-5" d="M375,453.3c8.3,3.05,16.72,6.2,25.14,9.54-.66-21.57-.36-45.24.84-70.84A466.67,466.67,0,0,0,375,453.3Z" transform="translate(-261 -184.97)"/></g><g id="Body"><g id="Body-2" data-name="Body"><path id="Main" class="cls-6" d="M474.18,258.18H661.82a16,16,0,0,1,16,16V445.82a16,16,0,0,1-16,16H490.18a16,16,0,0,1-16-16V258.18a0,0,0,0,1,0,0Z" transform="translate(-346.85 327.77) rotate(-45)"/><path id="Tail" class="cls-7" d="M360,312.14v95.72a10,10,0,0,0,17.07,7.07L432,360l-54.93-54.93A10,10,0,0,0,360,312.14Z" transform="translate(-261 -184.97)"/></g></g><g id="Stripes"><path class="cls-8" d="M628.75,410.19c-14.07-7.51-62-15.19-82.49-15.19-22.86,0-30.76,16.21-45.24,25.32-1.63,1-3.51,2.09-5.53,3.17l69.2,69.2a16,16,0,0,0,22.62,0l57.34-57.34C642,424.77,637.14,414.66,628.75,410.19Z" transform="translate(-261 -184.97)"/><path class="cls-9" d="M377.07,305.07A10,10,0,0,0,360,312.14v68.29c11.28,1.88,22.43-.17,33.34-10.1,9.74-8.85,14.57-4.7,20.24-19.15a35.83,35.83,0,0,0,2.15-7.45Z" transform="translate(-261 -184.97)"/><path class="cls-10" d="M470,358.29c13.85,13.85,30.54,6.74,46,8.82,14.18,1.9,60,11,69,1.89,11-11,13-27.42,8-45-3.62-12.67-32-48-43.11-59.08-3.84-3.85-9.14-6.23-15-7.83l-81.15,81.15C459.62,346.47,465.5,353.83,470,358.29Z" transform="translate(-261 -184.97)"/><path class="cls-11" d="M587.31,227.31A15.89,15.89,0,0,0,577,222.68c-6.38,16-13.87,35.61-7.87,42.83,6.84,8.23,36.72,27.25,48.36,30,7.23,1.72,23.57,1,37.26-.78Z" transform="translate(-261 -184.97)"/></g><g id="Shade"><path class="cls-12" d="M377.07,414.93,432,360l-54.93-54.93A10,10,0,0,0,360,312.14v95.72A10,10,0,0,0,377.07,414.93Z" transform="translate(-261 -184.97)"/><path class="cls-13" d="M587.31,492.69,708.69,371.31a16,16,0,0,0,0-22.62L587.31,227.31a16,16,0,0,0-22.62,0L432,360,564.69,492.69A16,16,0,0,0,587.31,492.69Z" transform="translate(-261 -184.97)"/></g><g id="Eye"><circle id="Eye-2" data-name="Eye" class="cls-14" cx="378" cy="148.03" r="18"/></g></svg>